<svg width="20" height="20" viewBox="0 0 20 20" fill="none" xmlns="http://www.w3.org/2000/svg">
<path d="M19.701 12.419C18.3654 17.7762 12.9395 21.0365 7.58164 19.7006C2.22605 18.365 -1.03423 12.9387 0.301927 7.58197C1.63691 2.22419 7.06288 -1.03634 12.4191 0.299234C17.7765 1.63481 21.0366 7.0617 19.7009 12.4191L19.701 12.419H19.701Z" fill="#F7931A"/>
<path fill-rule="evenodd" clip-rule="evenodd" d="M14.4108 8.57528C14.6099 7.2445 13.5967 6.52915 12.2113 6.05195L12.6607 4.24928L11.5634 3.97585L11.1259 5.73105C10.8374 5.6591 10.5411 5.59131 10.2467 5.5241L10.6874 3.75732L9.59072 3.48389L9.14103 5.28596C8.9023 5.23161 8.66783 5.17789 8.44035 5.12129L8.44162 5.11562L6.92837 4.73773L6.63646 5.90976C6.63646 5.90976 7.45059 6.09638 7.43344 6.10786C7.8778 6.21877 7.95815 6.51292 7.94481 6.74608L7.43285 8.79973C7.46345 8.8075 7.50314 8.81875 7.54693 8.83634L7.51511 8.8284L7.51507 8.82839C7.48799 8.82161 7.45984 8.81457 7.43094 8.80765L6.71335 11.6845C6.65905 11.8195 6.52121 12.0221 6.21053 11.9452C6.22153 11.9611 5.41297 11.7462 5.41297 11.7462L4.86816 13.0023L6.29617 13.3582C6.45255 13.3975 6.60708 13.4377 6.76005 13.4776L6.76015 13.4776C6.867 13.5055 6.9731 13.5332 7.07853 13.5601L6.62444 15.3835L7.7205 15.6569L8.17019 13.8529C8.46962 13.9342 8.76021 14.0092 9.04469 14.0798L8.59651 15.8753L9.6939 16.1488L10.1479 14.3288C12.0191 14.683 13.4261 14.5402 14.0183 12.8477C14.4955 11.4851 13.9946 10.6991 13.0101 10.1865C13.7272 10.0212 14.2672 9.54959 14.4112 8.57543L14.4109 8.57518L14.4108 8.57528ZM11.9038 12.091C11.5927 13.3412 9.63577 12.8243 8.74043 12.5879C8.65988 12.5666 8.58793 12.5476 8.52654 12.5323L9.12912 10.1167C9.20394 10.1354 9.29537 10.1559 9.39895 10.1792C10.3251 10.387 12.2226 10.8128 11.9038 12.091H11.9038ZM9.58462 9.05804C10.3311 9.25726 11.9595 9.69184 12.2431 8.55558H12.2432C12.5327 7.39346 10.9502 7.0431 10.1773 6.87198C10.0904 6.85272 10.0137 6.83574 9.95102 6.82013L9.4047 9.01094C9.45628 9.0238 9.51681 9.03995 9.58462 9.05804Z" fill="white"/>
</svg>
